<svg id="svg" version="1.1" xmlns="http://www.w3.org/2000/svg" xmlns:xlink="http://www.w3.org/1999/xlink" width="400" height="400" viewBox="0, 0, 400,400"><g id="svgg"><path id="path0" d="M164.000 0.349 C 164.000 0.541,159.905 0.786,154.900 0.894 C 145.627 1.094,143.769 1.384,143.358 2.694 C 143.237 3.082,142.881 3.878,142.569 4.462 C 141.142 7.126,143.669 13.115,146.251 13.187 C 146.499 13.194,146.925 13.469,147.198 13.797 C 147.470 14.126,148.418 14.590,149.305 14.828 C 151.918 15.532,154.954 17.902,154.731 19.064 C 154.620 19.643,153.993 19.891,151.795 20.226 C 150.258 20.460,148.640 20.865,148.200 21.125 C 147.760 21.386,146.950 21.787,146.400 22.017 C 145.850 22.247,144.950 22.694,144.400 23.011 C 143.850 23.329,142.994 23.591,142.499 23.594 C 142.003 23.597,140.925 23.960,140.104 24.400 C 139.284 24.840,138.318 25.200,137.960 25.200 C 137.601 25.200,136.850 25.560,136.291 26.000 C 135.731 26.440,135.011 26.800,134.691 26.800 C 134.370 26.800,133.650 27.160,133.091 27.600 C 132.531 28.040,131.974 28.400,131.851 28.400 C 131.729 28.400,130.857 28.947,129.914 29.615 C 126.788 31.830,125.410 32.680,124.459 32.982 C 123.514 33.281,121.108 34.750,120.015 35.694 C 119.235 36.368,118.135 37.013,116.200 37.934 C 115.320 38.352,114.150 39.130,113.600 39.663 C 111.579 41.621,106.477 44.400,104.904 44.400 C 104.363 44.400,103.354 44.658,102.660 44.974 C 100.685 45.875,98.367 46.395,96.324 46.398 C 95.292 46.399,94.336 46.580,94.200 46.800 C 94.064 47.020,93.417 47.200,92.762 47.200 C 89.266 47.200,86.366 54.300,88.390 57.905 C 88.604 58.287,89.046 59.276,89.370 60.102 C 89.739 61.041,90.493 61.918,91.380 62.441 C 92.161 62.902,92.800 63.419,92.800 63.591 C 92.800 63.763,93.340 64.127,94.000 64.400 C 95.502 65.022,95.502 65.641,93.999 68.536 C 93.339 69.809,92.594 71.664,92.343 72.660 C 92.093 73.655,91.283 75.669,90.545 77.135 C 89.807 78.601,89.201 80.070,89.199 80.400 C 89.197 80.730,88.903 81.540,88.546 82.200 C 88.189 82.860,87.740 84.196,87.548 85.170 C 87.355 86.143,86.950 87.223,86.646 87.570 C 86.343 87.916,85.962 88.650,85.800 89.200 C 85.638 89.750,85.278 90.470,85.000 90.800 C 84.722 91.130,84.362 91.850,84.200 92.400 C 84.038 92.950,83.679 93.670,83.402 94.000 C 83.125 94.330,82.777 95.440,82.629 96.467 C 82.482 97.494,82.111 98.542,81.806 98.795 C 81.501 99.048,81.129 99.828,80.980 100.528 C 80.830 101.227,80.566 101.980,80.393 102.200 C 80.220 102.420,79.873 103.410,79.622 104.400 C 79.372 105.390,78.998 106.560,78.791 107.000 C 78.585 107.440,78.262 109.913,78.073 112.496 C 77.835 115.764,77.542 117.407,77.112 117.896 C 76.773 118.283,76.357 119.050,76.189 119.600 C 75.901 120.540,75.435 121.306,72.685 125.357 C 70.411 128.707,71.674 133.913,74.934 134.630 C 75.613 134.779,76.630 135.242,77.193 135.658 C 77.757 136.075,79.146 136.526,80.280 136.660 L 82.341 136.904 82.471 151.971 C 82.591 165.997,82.653 167.117,83.363 168.201 C 83.907 169.030,84.195 170.405,84.364 172.982 C 84.528 175.474,84.820 176.908,85.301 177.589 C 85.822 178.326,86.000 179.372,86.000 181.690 C 86.000 184.039,86.196 185.169,86.800 186.296 C 87.975 188.488,87.950 193.879,86.758 195.239 C 86.294 195.767,85.755 196.560,85.559 197.000 C 85.362 197.440,85.021 198.070,84.801 198.400 C 84.580 198.730,84.212 199.450,83.983 200.000 C 83.558 201.019,83.103 201.819,81.934 203.600 C 81.574 204.150,81.150 205.230,80.993 206.000 C 80.836 206.770,80.562 207.582,80.383 207.805 C 80.205 208.028,79.840 209.108,79.572 210.205 C 79.304 211.302,78.918 212.414,78.714 212.675 C 78.195 213.340,78.245 220.405,78.771 220.931 C 79.007 221.167,79.200 221.977,79.200 222.732 C 79.200 223.911,79.671 224.587,82.557 227.552 C 85.759 230.841,87.597 233.479,87.602 234.794 C 87.604 235.127,87.857 235.883,88.165 236.473 C 88.473 237.063,88.837 238.056,88.974 238.679 C 89.238 239.882,91.005 241.992,92.655 243.073 C 93.337 243.519,94.887 243.784,97.592 243.914 L 101.534 244.104 101.667 250.752 C 101.788 256.822,101.878 257.526,102.700 258.847 C 103.303 259.816,103.600 260.920,103.600 262.187 C 103.600 264.209,103.739 264.580,107.087 271.512 C 108.530 274.501,109.626 276.252,110.333 276.697 C 110.920 277.066,115.990 281.948,121.600 287.545 C 131.020 296.944,132.780 298.523,135.000 299.566 C 135.440 299.772,137.462 301.624,139.493 303.681 C 141.874 306.092,144.005 307.843,145.493 308.610 C 146.762 309.265,147.868 309.960,147.952 310.157 C 148.392 311.187,151.041 313.644,151.951 313.866 C 152.528 314.007,153.429 314.455,153.954 314.861 C 154.479 315.267,155.083 315.600,155.298 315.600 C 155.796 315.600,159.600 318.055,159.600 318.376 C 159.600 318.661,161.714 319.802,163.346 320.397 L 164.492 320.815 164.309 324.708 C 164.188 327.275,163.901 329.009,163.465 329.800 C 163.102 330.460,162.804 331.589,162.802 332.310 C 162.800 333.376,162.595 333.693,161.700 334.013 C 160.182 334.555,158.421 335.579,157.607 336.393 C 157.135 336.865,155.973 337.147,153.838 337.309 C 152.141 337.437,150.538 337.709,150.276 337.913 C 150.014 338.117,148.902 338.504,147.805 338.772 C 146.708 339.040,145.628 339.400,145.405 339.572 C 145.182 339.744,144.102 340.104,143.005 340.372 C 141.908 340.640,140.828 341.005,140.605 341.183 C 140.382 341.362,139.570 341.638,138.800 341.797 C 138.030 341.956,136.839 342.427,136.153 342.843 C 135.467 343.259,134.387 343.601,133.753 343.603 C 133.119 343.604,132.060 343.963,131.400 344.400 C 130.740 344.837,129.687 345.196,129.060 345.197 C 127.789 345.200,127.057 345.500,120.200 348.829 C 117.560 350.111,114.860 351.275,114.200 351.416 C 113.167 351.636,100.905 357.375,99.200 358.437 C 98.870 358.642,97.880 359.144,97.000 359.552 C 93.926 360.976,91.860 363.601,88.665 370.139 C 84.636 378.387,84.400 378.949,84.400 380.307 C 84.400 380.959,84.074 381.921,83.675 382.446 C 83.276 382.971,82.485 384.300,81.918 385.400 C 81.351 386.500,80.602 387.940,80.254 388.600 C 79.906 389.260,79.322 390.520,78.956 391.400 C 78.590 392.280,77.776 394.094,77.146 395.432 C 75.373 399.193,75.524 400.000,78.000 400.000 C 79.556 400.000,80.000 399.860,80.000 399.368 C 80.000 399.020,80.610 397.805,81.355 396.668 C 82.100 395.531,82.827 394.211,82.970 393.736 C 83.114 393.261,83.494 392.654,83.815 392.387 C 84.137 392.120,84.400 391.498,84.400 391.005 C 84.400 390.512,84.760 389.650,85.200 389.091 C 85.640 388.531,86.000 387.850,86.000 387.577 C 86.000 387.304,86.433 386.162,86.962 385.040 C 87.491 383.918,88.245 382.190,88.637 381.200 C 89.029 380.210,89.570 379.130,89.838 378.800 C 90.106 378.470,90.524 377.456,90.766 376.547 C 91.008 375.637,91.474 374.670,91.803 374.398 C 92.131 374.125,92.403 373.609,92.406 373.251 C 92.409 372.893,92.668 372.150,92.982 371.600 C 93.295 371.050,93.828 370.004,94.166 369.275 C 94.913 367.663,99.741 362.800,100.594 362.800 C 100.932 362.800,101.516 362.440,101.893 362.000 C 102.270 361.560,102.858 361.200,103.200 361.200 C 103.542 361.200,104.267 360.888,104.811 360.506 C 106.040 359.644,112.675 356.400,113.210 356.400 C 113.426 356.400,114.275 356.040,115.096 355.600 C 115.916 355.160,116.884 354.800,117.245 354.800 C 117.606 354.800,118.122 354.535,118.391 354.211 C 118.660 353.886,119.537 353.515,120.340 353.385 C 121.143 353.256,122.540 352.801,123.444 352.375 C 124.348 351.949,125.338 351.594,125.644 351.586 C 125.950 351.579,126.920 351.225,127.800 350.800 C 128.680 350.375,129.648 350.021,129.951 350.014 C 130.254 350.006,131.784 349.385,133.351 348.634 C 134.918 347.883,136.767 347.153,137.461 347.011 C 138.154 346.869,139.408 346.404,140.246 345.977 C 141.084 345.550,142.231 345.200,142.796 345.200 C 143.360 345.200,144.196 344.938,144.653 344.618 C 145.110 344.298,146.608 343.855,147.982 343.634 C 149.356 343.413,150.720 343.033,151.013 342.789 C 151.306 342.546,152.763 342.175,154.252 341.964 C 155.740 341.753,157.252 341.315,157.611 340.990 C 157.969 340.666,158.540 340.400,158.878 340.400 C 159.216 340.400,159.921 340.067,160.446 339.661 C 160.971 339.254,162.300 338.803,163.400 338.658 C 165.519 338.379,166.400 337.648,166.400 336.168 C 166.400 335.685,167.047 333.266,167.837 330.794 C 170.221 323.337,168.714 315.600,164.878 315.600 C 164.683 315.600,164.239 315.285,163.890 314.900 C 163.541 314.515,162.208 313.660,160.928 313.000 C 159.647 312.340,158.456 311.575,158.280 311.300 C 158.104 311.025,157.767 310.800,157.531 310.800 C 156.773 310.800,148.637 305.306,147.016 303.700 C 146.517 303.205,145.904 302.800,145.654 302.800 C 145.404 302.800,145.200 302.656,145.200 302.480 C 145.200 302.304,143.895 301.096,142.300 299.796 C 140.705 298.496,139.256 297.200,139.080 296.916 C 138.904 296.632,138.539 296.400,138.269 296.400 C 137.999 296.400,137.498 296.085,137.156 295.700 C 136.207 294.630,133.617 292.365,131.607 290.845 C 130.613 290.093,128.360 287.948,126.600 286.077 C 124.840 284.206,121.419 280.588,118.999 278.038 C 107.993 266.441,106.564 263.071,106.763 249.200 C 106.809 246.010,107.047 242.719,107.291 241.887 C 107.862 239.937,107.323 239.233,105.792 239.931 C 105.211 240.195,102.914 240.400,100.524 240.400 L 96.286 240.400 94.343 238.457 C 92.659 236.773,92.400 236.299,92.400 234.894 C 92.400 232.656,90.759 229.677,88.157 227.194 C 86.971 226.062,86.000 224.970,86.000 224.768 C 86.000 224.566,85.726 224.400,85.390 224.400 C 85.055 224.400,84.593 223.909,84.365 223.308 C 84.137 222.708,83.736 222.084,83.475 221.922 C 82.650 221.412,82.839 212.427,83.700 211.211 C 84.094 210.655,84.400 209.500,84.400 208.572 C 84.400 207.497,84.678 206.601,85.200 206.000 C 85.640 205.493,86.000 204.743,86.000 204.335 C 86.000 203.926,86.360 203.284,86.800 202.907 C 87.240 202.530,87.600 202.070,87.600 201.884 C 87.600 201.377,89.620 198.773,91.158 197.298 C 92.580 195.935,92.857 191.315,91.608 189.809 C 91.370 189.523,91.005 187.797,90.797 185.975 C 90.452 182.950,89.809 179.641,88.742 175.400 C 88.521 174.520,88.088 172.133,87.781 170.096 C 87.474 168.058,86.993 165.988,86.712 165.496 C 86.326 164.821,86.169 160.725,86.075 148.900 C 85.981 137.161,85.830 133.186,85.475 133.144 C 85.214 133.113,83.978 133.056,82.728 133.016 C 81.479 132.977,80.219 132.756,79.928 132.524 C 79.638 132.293,78.739 131.892,77.932 131.632 C 75.702 130.914,75.096 126.816,77.090 125.937 C 78.148 125.470,81.200 119.753,81.200 118.237 C 81.200 117.591,81.480 116.753,81.823 116.375 C 82.244 115.909,82.547 114.384,82.758 111.663 C 82.929 109.450,83.295 107.367,83.572 107.034 C 83.848 106.701,84.223 105.227,84.405 103.758 C 84.587 102.288,84.925 100.970,85.154 100.828 C 85.384 100.686,85.771 99.644,86.014 98.511 C 86.256 97.379,86.713 96.238,87.028 95.977 C 87.342 95.716,87.600 95.260,87.600 94.963 C 87.600 94.667,87.945 93.744,88.366 92.912 C 89.385 90.900,90.640 88.013,90.979 86.900 C 91.130 86.405,91.406 86.000,91.592 86.000 C 91.778 86.000,92.059 85.235,92.216 84.300 C 92.373 83.365,92.839 82.171,93.251 81.646 C 93.663 81.121,94.000 80.189,94.000 79.575 C 94.000 78.960,94.256 78.201,94.568 77.889 C 94.881 77.576,95.348 76.528,95.606 75.560 C 95.863 74.592,96.288 73.530,96.550 73.200 C 96.811 72.870,97.451 71.790,97.972 70.800 C 98.493 69.810,99.162 68.716,99.459 68.369 C 99.757 68.021,100.000 67.599,100.000 67.430 C 100.000 67.262,100.354 66.627,100.786 66.020 L 101.572 64.916 99.713 63.580 C 96.913 61.570,92.768 57.203,91.967 55.421 C 90.652 52.494,91.955 51.523,98.123 50.833 C 99.840 50.640,101.550 50.219,101.923 49.895 C 102.295 49.572,103.494 49.192,104.586 49.050 C 105.679 48.908,106.715 48.538,106.889 48.227 C 107.063 47.917,107.770 47.538,108.460 47.387 C 109.151 47.235,110.603 46.588,111.687 45.949 C 112.771 45.309,114.230 44.515,114.929 44.182 C 116.704 43.339,117.877 42.632,118.697 41.912 C 119.084 41.572,119.805 41.171,120.300 41.020 C 120.795 40.870,121.200 40.574,121.200 40.363 C 121.200 40.153,121.605 39.806,122.100 39.594 C 122.595 39.381,123.540 38.800,124.200 38.304 C 124.860 37.807,126.069 36.895,126.886 36.277 C 127.704 35.660,129.414 34.604,130.686 33.932 C 131.959 33.259,133.270 32.480,133.600 32.199 C 133.930 31.919,134.785 31.565,135.500 31.413 C 136.215 31.261,136.800 30.978,136.800 30.784 C 136.800 30.591,137.522 30.216,138.405 29.951 C 139.287 29.687,140.209 29.230,140.454 28.935 C 140.698 28.641,141.067 28.400,141.273 28.400 C 141.480 28.400,143.178 27.680,145.048 26.800 C 146.918 25.920,148.662 25.199,148.924 25.198 C 149.186 25.196,149.900 24.934,150.510 24.616 C 151.121 24.297,152.631 23.850,153.865 23.622 C 155.100 23.394,156.366 22.994,156.680 22.733 C 156.994 22.473,158.452 22.156,159.921 22.030 C 163.533 21.719,163.588 21.118,160.300 17.902 C 156.204 13.894,151.106 10.586,148.348 10.145 C 145.507 9.691,143.839 7.018,145.413 5.444 C 146.244 4.614,147.444 4.474,155.764 4.240 C 160.249 4.114,163.029 3.877,163.196 3.607 C 163.736 2.733,180.498 2.556,181.357 3.414 C 181.971 4.028,183.030 4.196,187.747 4.428 C 190.856 4.580,193.878 4.896,194.463 5.129 C 195.048 5.362,197.118 5.665,199.063 5.802 C 201.008 5.940,203.320 6.294,204.200 6.590 C 205.080 6.886,206.746 7.343,207.901 7.605 C 209.057 7.866,210.096 8.232,210.211 8.417 C 210.325 8.602,211.219 8.874,212.196 9.020 C 213.174 9.167,214.178 9.533,214.427 9.833 C 214.676 10.133,215.537 10.496,216.340 10.640 C 217.143 10.784,218.070 11.128,218.400 11.406 C 218.730 11.684,219.630 12.041,220.400 12.201 C 221.170 12.360,222.555 12.830,223.478 13.245 C 224.401 13.660,225.358 14.000,225.605 14.000 C 225.851 14.000,228.265 15.080,230.968 16.400 C 233.671 17.720,236.080 18.800,236.321 18.800 C 236.563 18.800,236.904 19.045,237.080 19.343 C 237.256 19.642,238.075 20.106,238.900 20.374 C 239.725 20.643,240.400 21.001,240.400 21.170 C 240.400 21.340,241.075 21.772,241.900 22.130 C 245.290 23.602,252.725 28.579,253.133 29.650 C 253.207 29.843,253.515 30.000,253.819 30.000 C 254.123 30.000,254.565 30.360,254.800 30.800 C 255.035 31.240,255.471 31.600,255.767 31.600 C 256.064 31.600,256.401 31.960,256.516 32.400 C 256.631 32.840,257.000 33.200,257.336 33.200 C 257.671 33.200,258.060 33.560,258.200 34.000 C 258.340 34.440,258.645 34.800,258.879 34.800 C 259.112 34.800,260.225 35.745,261.352 36.900 C 263.713 39.321,266.331 41.200,267.343 41.200 C 267.729 41.200,268.799 41.540,269.722 41.956 C 270.645 42.371,272.210 42.841,273.200 43.001 C 274.190 43.160,275.180 43.433,275.400 43.606 C 275.620 43.780,276.598 44.135,277.573 44.396 C 278.549 44.657,280.439 45.383,281.773 46.009 C 283.108 46.636,284.710 47.273,285.332 47.425 C 285.955 47.578,286.552 47.930,286.658 48.207 C 286.764 48.484,287.394 48.819,288.058 48.952 C 288.722 49.084,289.725 49.555,290.286 49.996 C 290.848 50.438,291.616 50.800,291.993 50.800 C 292.369 50.800,293.093 51.160,293.600 51.600 C 294.107 52.040,294.720 52.403,294.961 52.407 C 295.453 52.415,297.669 53.807,301.749 56.671 C 306.042 59.684,312.400 66.466,312.400 68.033 C 312.400 68.248,312.661 68.525,312.981 68.648 C 313.300 68.770,313.764 69.485,314.012 70.235 C 314.259 70.986,314.614 71.600,314.800 71.600 C 314.986 71.600,315.341 72.214,315.588 72.965 C 315.836 73.715,316.300 74.430,316.619 74.552 C 316.939 74.675,317.200 75.130,317.200 75.564 C 317.200 75.998,317.387 76.469,317.616 76.610 C 318.072 76.892,319.897 79.615,320.692 81.200 C 320.968 81.750,321.723 83.100,322.370 84.200 C 323.017 85.300,323.559 86.607,323.573 87.104 C 323.588 87.601,323.960 88.316,324.400 88.693 C 324.953 89.166,325.201 89.875,325.202 90.989 C 325.204 91.875,325.474 93.116,325.802 93.746 C 328.715 99.329,324.687 101.977,320.244 97.400 C 318.124 95.216,315.404 93.714,316.080 95.100 C 316.160 95.265,316.464 95.940,316.756 96.600 C 317.270 97.763,317.598 98.434,318.368 99.900 C 319.745 102.521,320.318 104.050,320.578 105.800 C 320.741 106.900,321.033 107.992,321.225 108.226 C 321.418 108.461,321.762 110.296,321.989 112.304 C 322.217 114.312,322.596 116.460,322.832 117.078 C 323.068 117.695,323.413 120.810,323.599 124.000 C 323.801 127.453,324.186 130.447,324.551 131.400 C 325.594 134.120,325.474 152.901,324.400 154.904 C 323.960 155.725,323.600 156.938,323.600 157.599 C 323.600 160.413,321.021 161.178,318.993 158.965 C 317.365 157.187,315.887 157.744,315.404 160.318 C 315.252 161.132,314.993 161.889,314.831 161.999 C 314.668 162.110,314.137 165.260,313.651 169.000 C 313.165 172.740,312.590 177.150,312.374 178.800 C 312.157 180.450,311.723 182.520,311.408 183.400 C 311.093 184.280,310.826 185.630,310.815 186.400 C 310.804 187.170,310.537 188.294,310.222 188.898 C 309.907 189.502,309.529 190.801,309.381 191.785 C 309.234 192.769,308.871 193.775,308.576 194.020 C 308.281 194.265,307.922 195.250,307.778 196.209 C 307.634 197.167,307.175 198.260,306.758 198.638 C 306.341 199.015,306.000 199.529,306.000 199.779 C 306.000 200.029,305.190 201.028,304.200 202.000 C 302.207 203.956,301.985 204.964,303.204 206.514 C 303.645 207.075,304.117 208.135,304.252 208.868 C 304.387 209.600,304.722 210.563,304.996 211.006 C 305.271 211.449,305.632 212.439,305.800 213.206 C 305.967 213.973,306.441 215.029,306.852 215.554 C 307.318 216.149,307.600 217.155,307.600 218.225 C 307.600 219.276,307.852 220.195,308.249 220.591 C 309.639 221.982,309.720 229.005,308.359 230.237 C 307.942 230.615,307.600 231.147,307.600 231.420 C 307.600 231.693,306.201 233.188,304.490 234.743 C 302.780 236.297,300.935 238.315,300.390 239.228 C 299.846 240.141,299.085 241.178,298.700 241.533 C 298.216 241.978,298.000 242.783,298.000 244.137 C 298.000 247.528,295.957 250.010,293.045 250.157 C 292.435 250.188,292.213 250.448,292.247 251.091 C 292.273 251.581,292.149 251.892,291.972 251.783 C 291.794 251.673,291.717 251.231,291.800 250.801 C 291.963 249.956,290.494 249.800,289.906 250.600 C 289.710 250.867,289.610 250.867,289.606 250.600 C 289.602 250.368,288.295 250.200,286.500 250.200 L 283.400 250.200 283.149 253.600 C 283.011 255.470,282.697 257.504,282.451 258.119 C 281.995 259.265,281.477 261.794,280.756 266.400 C 280.532 267.830,280.117 269.360,279.835 269.800 C 279.552 270.240,279.189 271.310,279.027 272.179 C 278.866 273.047,278.389 274.196,277.967 274.733 C 277.545 275.269,277.200 276.015,277.200 276.391 C 277.200 277.184,276.184 278.449,273.416 281.100 C 272.324 282.145,270.050 284.377,268.362 286.060 C 266.674 287.744,264.777 289.449,264.146 289.851 C 263.516 290.252,262.856 290.810,262.680 291.090 C 262.504 291.371,262.159 291.600,261.914 291.600 C 261.668 291.600,261.182 291.875,260.834 292.212 C 260.485 292.548,259.449 293.313,258.532 293.912 C 257.614 294.510,256.264 295.540,255.532 296.200 C 253.955 297.621,251.140 299.582,250.663 299.593 C 250.478 299.597,249.869 299.960,249.309 300.400 C 248.750 300.840,247.951 301.200,247.534 301.200 C 247.116 301.200,246.674 301.463,246.550 301.785 C 246.427 302.106,245.938 302.484,245.463 302.624 C 244.988 302.764,243.585 303.578,242.345 304.433 C 241.105 305.288,239.215 306.445,238.145 307.005 C 237.075 307.565,235.930 308.180,235.600 308.372 C 235.270 308.564,232.300 310.040,229.000 311.651 C 225.700 313.262,222.280 315.031,221.400 315.582 C 220.520 316.133,219.440 316.775,219.000 317.008 C 218.046 317.515,217.854 327.365,218.746 330.047 C 219.010 330.843,219.377 332.823,219.561 334.447 C 220.156 339.706,221.809 342.000,225.003 342.000 C 225.809 342.000,226.662 342.304,227.084 342.742 C 228.179 343.877,231.414 344.823,235.451 345.187 C 237.459 345.369,239.529 345.784,240.051 346.111 C 240.573 346.438,241.948 346.808,243.107 346.934 C 244.265 347.061,245.610 347.442,246.096 347.782 C 246.581 348.122,247.253 348.401,247.589 348.402 C 247.925 348.404,248.703 348.667,249.317 348.988 C 249.931 349.308,251.071 349.690,251.849 349.836 C 252.627 349.982,253.357 350.343,253.471 350.640 C 253.584 350.936,254.335 351.290,255.139 351.427 C 255.942 351.563,257.088 352.018,257.684 352.437 C 258.280 352.857,259.197 353.200,259.723 353.200 C 260.248 353.200,261.093 353.560,261.600 354.000 C 262.107 354.440,262.790 354.800,263.117 354.800 C 263.445 354.800,264.452 355.145,265.356 355.566 C 266.260 355.987,268.350 356.715,270.000 357.183 C 271.650 357.652,273.540 358.228,274.200 358.463 C 274.860 358.699,276.165 359.163,277.100 359.493 C 278.035 359.824,278.800 360.239,278.800 360.416 C 278.800 360.592,279.379 360.864,280.087 361.019 C 283.437 361.755,291.249 371.487,293.176 377.328 C 293.443 378.138,293.820 378.800,294.013 378.800 C 294.206 378.800,294.484 379.475,294.631 380.300 C 294.777 381.125,295.235 382.361,295.649 383.047 C 296.062 383.733,296.400 384.777,296.400 385.367 C 296.400 385.957,296.677 386.975,297.015 387.630 C 297.354 388.284,297.818 389.834,298.047 391.073 C 298.276 392.312,298.736 393.741,299.068 394.248 C 299.401 394.756,299.772 396.258,299.892 397.586 L 300.111 400.000 302.311 400.000 L 304.511 400.000 304.277 398.018 C 304.148 396.928,303.784 395.623,303.469 395.118 C 303.153 394.613,302.784 393.048,302.648 391.641 C 302.511 390.233,302.241 388.883,302.046 388.641 C 301.852 388.398,301.563 387.570,301.404 386.800 C 301.245 386.030,300.875 384.860,300.581 384.200 C 300.287 383.540,299.855 382.256,299.621 381.347 C 299.386 380.437,298.926 379.470,298.597 379.198 C 298.269 378.925,298.000 378.476,298.000 378.200 C 298.000 377.924,297.742 377.483,297.426 377.221 C 297.110 376.959,296.738 376.230,296.600 375.600 C 296.462 374.970,296.108 374.255,295.814 374.011 C 295.519 373.767,295.157 373.080,295.008 372.484 C 294.859 371.888,294.498 371.130,294.206 370.800 C 293.914 370.470,293.476 369.456,293.234 368.547 C 292.992 367.637,292.526 366.670,292.197 366.398 C 291.869 366.125,291.600 365.652,291.600 365.345 C 291.600 364.619,284.981 358.000,284.255 358.000 C 283.948 358.000,283.475 357.731,283.202 357.403 C 282.930 357.074,281.963 356.608,281.053 356.366 C 280.144 356.124,279.130 355.694,278.800 355.410 C 278.470 355.127,277.750 354.762,277.200 354.600 C 276.650 354.438,275.930 354.080,275.600 353.804 C 275.270 353.529,273.898 353.209,272.551 353.094 C 271.204 352.979,269.674 352.618,269.151 352.291 C 268.628 351.965,267.570 351.582,266.800 351.440 C 266.030 351.298,263.960 350.489,262.200 349.642 C 257.060 347.167,256.137 346.800,255.059 346.800 C 254.497 346.800,252.724 346.108,251.119 345.263 C 248.851 344.068,247.593 343.677,245.481 343.507 C 243.892 343.380,242.478 343.036,242.081 342.681 C 241.706 342.347,240.320 341.950,239.000 341.799 C 237.680 341.648,235.790 341.165,234.800 340.726 C 231.421 339.228,228.831 338.414,227.354 338.386 C 225.446 338.349,224.516 336.802,224.288 333.285 C 224.170 331.462,223.894 329.752,223.674 329.485 C 223.137 328.834,222.397 324.691,222.413 322.427 C 222.429 320.123,223.105 319.227,225.057 318.924 C 226.434 318.711,229.879 317.119,230.400 316.455 C 230.902 315.816,233.221 314.410,234.164 314.173 C 234.738 314.029,235.298 313.764,235.409 313.585 C 235.520 313.405,238.032 312.061,240.990 310.597 C 243.949 309.134,247.018 307.421,247.811 306.791 C 248.605 306.161,250.926 304.826,252.969 303.825 C 255.013 302.824,257.116 301.589,257.643 301.079 C 258.169 300.569,259.488 299.641,260.573 299.016 C 261.658 298.392,263.105 297.323,263.788 296.640 C 264.926 295.503,266.283 294.445,267.953 293.392 C 271.092 291.411,272.024 290.703,272.392 290.015 C 272.932 289.005,274.587 287.342,275.579 286.811 C 276.459 286.340,278.588 283.314,279.008 281.938 C 279.166 281.422,279.522 280.730,279.800 280.400 C 280.078 280.070,280.438 279.350,280.600 278.800 C 280.762 278.250,281.129 277.530,281.416 277.200 C 281.703 276.870,282.059 276.112,282.208 275.516 C 282.357 274.920,282.731 274.223,283.039 273.967 C 283.348 273.711,283.600 273.296,283.600 273.045 C 283.600 272.794,283.960 271.916,284.400 271.096 C 284.910 270.144,285.200 268.839,285.200 267.496 C 285.200 266.188,285.489 264.849,285.962 263.967 C 286.505 262.954,286.806 261.274,287.011 258.108 L 287.298 253.670 288.989 253.245 C 289.921 253.010,291.860 252.929,293.311 253.065 C 297.176 253.425,300.722 251.330,301.419 248.273 C 301.560 247.653,301.927 246.663,302.235 246.073 C 302.543 245.483,302.796 244.776,302.798 244.501 C 302.801 243.895,307.374 239.219,308.885 238.278 C 309.566 237.853,310.508 236.448,311.416 234.501 C 312.213 232.795,313.075 230.968,313.332 230.439 C 314.121 228.820,313.947 220.408,313.100 219.211 C 312.715 218.667,312.399 217.677,312.398 217.011 C 312.396 216.345,312.143 215.317,311.835 214.727 C 311.527 214.137,311.155 213.104,311.007 212.432 C 310.859 211.759,310.570 211.105,310.365 210.978 C 309.969 210.734,307.600 205.868,307.600 205.301 C 307.600 205.118,308.312 204.181,309.182 203.219 C 310.053 202.258,310.883 200.915,311.029 200.235 C 311.174 199.556,311.438 198.818,311.617 198.595 C 311.795 198.372,312.166 197.297,312.440 196.206 C 312.715 195.115,313.177 193.767,313.467 193.211 C 313.758 192.655,313.996 191.295,313.998 190.189 C 313.999 188.921,314.258 187.813,314.700 187.189 C 315.222 186.452,315.456 185.079,315.622 181.800 C 315.784 178.570,316.029 177.118,316.542 176.339 C 317.087 175.512,317.293 174.042,317.481 169.656 C 317.719 164.095,317.734 164.021,318.892 162.917 C 319.579 162.261,320.008 162.048,319.931 162.400 C 319.745 163.252,322.145 163.412,323.742 162.654 C 324.853 162.127,326.800 160.055,326.800 159.400 C 326.800 159.272,327.205 158.620,327.700 157.950 C 328.900 156.327,329.129 131.378,327.961 129.582 C 327.473 128.833,327.268 127.099,327.094 122.281 C 326.933 117.817,326.699 115.703,326.297 115.081 C 325.452 113.776,325.253 112.603,325.161 108.400 L 325.078 104.600 326.439 104.153 C 328.655 103.424,328.851 102.635,328.713 95.000 C 328.600 88.778,328.513 88.077,327.695 86.753 C 327.203 85.957,326.800 84.854,326.800 84.302 C 326.800 83.750,326.542 83.083,326.226 82.821 C 325.910 82.559,325.538 81.830,325.400 81.200 C 325.262 80.570,324.902 79.850,324.600 79.600 C 324.298 79.350,323.943 78.649,323.810 78.044 C 323.677 77.439,322.957 76.315,322.210 75.546 C 321.463 74.777,320.736 73.684,320.593 73.116 C 320.451 72.549,319.736 71.432,319.005 70.633 C 318.273 69.835,316.904 67.611,315.961 65.691 C 313.794 61.277,309.402 56.539,305.800 54.730 C 304.407 54.030,303.064 53.006,302.600 52.290 C 302.134 51.571,300.766 50.530,299.325 49.797 C 297.963 49.105,296.613 48.350,296.325 48.118 C 296.036 47.887,295.350 47.565,294.800 47.402 C 294.250 47.239,293.530 46.878,293.200 46.600 C 292.870 46.322,292.150 45.962,291.600 45.800 C 291.050 45.638,290.330 45.271,290.000 44.984 C 289.670 44.697,288.872 44.331,288.227 44.169 C 287.581 44.008,286.591 43.635,286.027 43.341 C 285.462 43.046,284.730 42.803,284.400 42.801 C 284.070 42.798,282.394 42.085,280.676 41.215 C 278.602 40.166,276.748 39.543,275.162 39.364 C 272.672 39.082,268.991 37.450,267.200 35.833 C 266.650 35.336,265.283 34.464,264.163 33.894 C 262.877 33.240,260.411 31.134,257.480 28.187 C 254.859 25.551,251.999 23.074,250.917 22.502 C 249.863 21.944,248.550 21.039,248.000 20.491 C 247.450 19.943,246.280 19.160,245.400 18.752 C 244.520 18.344,243.530 17.828,243.200 17.605 C 242.870 17.382,242.150 17.020,241.600 16.801 C 241.050 16.581,240.330 16.235,240.000 16.031 C 238.094 14.853,229.272 10.794,228.600 10.786 C 228.160 10.780,226.900 10.332,225.800 9.791 C 224.700 9.250,223.350 8.800,222.800 8.791 C 222.250 8.782,221.451 8.510,221.024 8.187 C 220.596 7.864,219.931 7.600,219.545 7.600 C 219.158 7.600,217.996 7.150,216.962 6.600 C 215.927 6.050,214.793 5.594,214.440 5.587 C 214.088 5.580,213.451 5.310,213.024 4.987 C 212.596 4.664,211.784 4.400,211.218 4.400 C 210.651 4.400,209.561 4.065,208.794 3.655 C 207.919 3.188,206.208 2.833,204.200 2.704 C 202.254 2.578,200.453 2.213,199.605 1.772 C 198.470 1.182,196.961 1.014,191.505 0.872 C 187.817 0.776,184.800 0.541,184.800 0.349 C 184.800 0.157,180.120 0.000,174.400 0.000 C 168.680 0.000,164.000 0.157,164.000 0.349 M111.857 169.300 C 109.854 172.513,109.038 189.624,110.519 197.352 C 111.398 201.940,111.415 204.632,110.567 204.957 C 109.324 205.434,108.762 205.171,106.421 203.019 C 101.392 198.396,95.773 197.014,93.181 199.762 C 91.641 201.394,89.200 205.731,89.200 206.834 C 89.200 207.229,89.022 207.663,88.805 207.797 C 88.588 207.931,88.134 209.067,87.796 210.320 C 87.458 211.574,86.797 213.894,86.328 215.475 C 85.333 218.830,85.188 218.464,89.367 223.163 C 92.380 226.551,94.657 230.367,95.022 232.639 C 95.695 236.831,102.338 238.725,105.625 235.663 C 106.642 234.715,108.748 234.508,109.520 235.280 C 109.868 235.628,110.000 238.570,110.000 246.007 C 110.000 262.617,110.772 265.254,117.607 272.000 C 119.725 274.090,122.242 276.790,123.200 278.000 C 125.825 281.314,128.315 283.839,131.200 286.112 C 132.630 287.238,135.314 289.519,137.163 291.180 C 149.837 302.561,162.406 312.000,164.885 312.000 C 165.265 312.000,166.645 312.543,167.951 313.207 C 169.257 313.871,171.648 314.752,173.263 315.166 C 174.878 315.579,177.190 316.193,178.400 316.529 C 185.819 318.589,205.000 318.321,211.200 316.071 C 212.410 315.631,214.660 314.870,216.200 314.379 C 217.740 313.887,219.418 313.212,219.928 312.878 C 221.121 312.098,223.076 311.001,224.600 310.257 C 225.260 309.935,226.970 308.998,228.400 308.176 C 230.684 306.863,236.069 304.009,239.151 302.479 C 239.728 302.193,240.470 301.789,240.800 301.581 C 241.130 301.374,242.940 300.409,244.822 299.438 C 246.704 298.466,248.481 297.385,248.771 297.035 C 249.061 296.686,249.475 296.400,249.692 296.400 C 250.516 296.400,256.359 292.195,260.158 288.867 C 262.335 286.960,265.224 284.661,266.579 283.758 C 272.979 279.490,277.494 270.442,278.402 260.066 C 278.659 257.133,279.115 254.143,279.417 253.421 C 279.718 252.700,280.148 250.960,280.372 249.555 C 281.050 245.304,282.941 244.572,286.972 247.000 C 291.236 249.568,294.261 248.154,295.210 243.149 C 295.777 240.155,297.228 237.895,301.213 233.796 C 305.495 229.392,305.908 228.314,305.272 223.200 C 304.817 219.534,302.724 212.234,301.838 211.222 C 301.539 210.880,301.172 210.197,301.022 209.705 C 299.058 203.259,294.526 200.501,290.472 203.286 C 285.016 207.035,284.596 207.902,286.698 211.068 C 290.924 217.433,287.480 228.053,279.914 231.993 C 273.657 235.252,271.211 233.544,274.300 228.074 C 277.975 221.567,278.192 219.400,275.170 219.400 C 271.317 219.400,270.849 218.368,272.900 214.391 C 274.357 211.564,274.679 207.406,273.636 204.887 C 273.032 203.428,272.400 203.193,272.400 204.426 C 272.400 210.163,261.159 208.266,246.709 200.089 C 242.104 197.484,241.386 197.873,242.981 202.111 C 246.193 210.645,249.087 214.872,252.237 215.628 C 256.032 216.540,257.096 217.910,258.190 223.295 C 259.533 229.905,257.636 238.772,254.186 242.013 C 252.536 243.563,248.006 243.463,245.870 241.830 C 240.542 237.754,240.063 224.594,245.029 218.693 C 247.016 216.331,247.085 216.367,239.800 215.991 C 234.383 215.712,223.923 214.407,222.394 213.820 C 222.061 213.692,220.171 213.326,218.194 213.007 C 208.441 211.433,199.390 208.881,192.540 205.772 C 191.846 205.457,191.036 205.194,190.740 205.187 C 190.443 205.181,189.300 204.732,188.200 204.191 C 187.100 203.650,185.930 203.205,185.600 203.202 C 183.563 203.186,169.161 194.997,163.855 190.838 C 158.973 187.011,148.945 178.829,147.639 177.607 C 144.455 174.628,142.814 175.336,139.773 181.000 C 137.830 184.619,137.306 185.200,135.988 185.200 C 133.431 185.200,126.867 182.028,122.600 178.730 C 118.092 175.245,113.200 170.047,113.200 168.740 C 113.200 168.082,112.412 168.410,111.857 169.300 M146.917 196.508 C 149.496 198.477,147.831 199.752,144.431 198.412 C 142.181 197.525,137.610 197.309,135.274 197.979 C 132.922 198.653,131.508 196.515,133.700 195.597 C 135.922 194.667,145.357 195.317,146.917 196.508 M141.571 210.982 C 143.461 212.175,145.133 214.147,145.428 215.531 C 145.553 216.119,145.933 217.378,146.271 218.328 C 148.392 224.277,146.480 234.123,142.842 235.978 C 134.345 240.313,128.598 230.380,130.958 215.436 C 131.726 210.574,137.251 208.255,141.571 210.982 M135.457 213.400 C 134.299 214.558,133.175 218.455,132.933 222.153 L 132.694 225.800 134.421 229.506 C 136.409 233.773,137.489 234.492,140.639 233.643 C 143.855 232.777,145.669 222.960,143.472 218.315 C 142.882 217.069,142.400 215.893,142.400 215.702 C 142.400 213.469,137.135 211.723,135.457 213.400 M249.323 218.199 C 247.643 219.376,244.789 226.569,244.810 229.573 C 244.889 240.470,252.722 244.029,254.994 234.200 C 257.293 224.253,253.989 214.931,249.323 218.199 M199.886 300.924 C 201.331 302.391,199.705 302.865,193.719 302.724 C 188.197 302.594,186.975 302.236,187.970 301.037 C 188.962 299.841,198.727 299.749,199.886 300.924 M211.929 324.382 C 204.961 328.117,192.362 329.681,185.658 327.645 C 184.128 327.180,182.597 326.800,182.257 326.800 C 181.917 326.800,180.055 326.244,178.119 325.565 C 171.776 323.338,171.476 323.483,171.042 329.000 C 170.903 330.760,170.522 333.084,170.195 334.164 C 169.868 335.244,169.600 337.220,169.600 338.556 L 169.600 340.984 173.700 345.019 C 175.955 347.239,178.790 349.709,180.000 350.509 C 181.210 351.309,183.550 353.167,185.200 354.637 C 193.289 361.845,194.927 361.669,206.000 352.410 C 209.190 349.743,213.001 346.624,214.469 345.480 C 215.937 344.336,217.234 343.052,217.351 342.626 C 217.730 341.248,217.122 335.462,216.351 333.113 C 215.888 331.702,215.600 329.681,215.600 327.841 C 215.600 323.650,214.764 322.863,211.929 324.382 " stroke="none" fill="#f7f7f7" fill-rule="evenodd"></path><path id="path1" d="M153.400 346.206 C 144.490 349.186,139.290 350.801,138.565 350.814 C 138.144 350.821,137.080 351.175,136.200 351.600 C 135.320 352.025,134.330 352.380,134.000 352.389 C 133.670 352.398,132.860 352.692,132.200 353.043 C 131.540 353.394,130.173 353.931,129.163 354.237 C 128.153 354.543,124.913 355.892,121.963 357.235 C 119.013 358.578,115.880 359.910,115.000 360.194 C 114.120 360.478,112.860 360.989,112.200 361.329 C 111.540 361.668,109.423 362.681,107.495 363.580 C 102.284 366.008,99.975 367.775,97.831 370.974 C 95.789 374.021,94.443 377.030,90.571 387.200 C 89.943 388.850,88.297 392.239,86.914 394.731 C 85.532 397.223,84.400 399.428,84.400 399.631 C 84.400 399.855,125.831 400.000,190.229 400.000 L 296.058 400.000 295.777 397.700 C 295.623 396.435,295.190 394.770,294.815 394.000 C 294.441 393.230,293.736 391.228,293.250 389.551 C 292.763 387.874,292.013 385.810,291.583 384.966 C 291.152 384.122,290.800 383.041,290.800 382.564 C 290.800 382.088,290.542 381.483,290.226 381.221 C 289.910 380.959,289.529 380.172,289.380 379.472 C 289.230 378.773,288.967 378.020,288.796 377.800 C 288.625 377.580,287.807 376.140,286.979 374.600 C 283.388 367.919,279.891 364.690,274.200 362.800 C 272.660 362.289,270.590 361.562,269.600 361.184 C 268.610 360.806,267.170 360.385,266.400 360.247 C 265.079 360.011,258.806 357.521,251.200 354.214 C 249.330 353.400,247.260 352.571,246.600 352.371 C 245.940 352.171,244.860 351.752,244.200 351.439 C 243.540 351.126,240.930 350.558,238.400 350.176 C 235.870 349.795,232.482 349.153,230.872 348.751 C 227.762 347.973,227.235 348.079,225.200 349.898 C 224.870 350.192,223.501 351.281,222.158 352.317 C 220.815 353.353,218.423 355.327,216.842 356.705 C 215.260 358.084,213.299 359.635,212.483 360.153 C 211.668 360.671,209.380 362.612,207.400 364.467 C 201.532 369.966,202.513 369.600,193.622 369.600 C 183.564 369.600,184.130 369.903,174.592 359.407 C 169.778 354.111,164.358 348.347,162.267 346.300 C 160.309 344.383,158.893 344.368,153.400 346.206 " stroke="none" fill="#05b4fa" fill-rule="evenodd"></path><path id="path2" d="M168.000 4.675 C 166.790 4.745,162.828 5.072,159.195 5.401 C 155.562 5.730,151.489 6.000,150.144 6.000 C 145.958 6.000,145.732 7.148,149.600 8.756 C 154.811 10.923,158.499 13.574,161.904 17.601 C 164.842 21.075,164.707 22.428,161.368 22.978 C 157.402 23.632,146.193 27.929,137.400 32.166 C 130.643 35.422,131.047 35.174,119.400 43.246 C 113.675 47.214,106.384 50.398,100.200 51.629 C 91.126 53.436,91.151 53.961,100.706 62.516 C 102.663 64.268,103.004 66.130,101.600 67.400 C 101.160 67.798,100.800 68.273,100.800 68.454 C 100.800 68.636,99.733 70.993,98.429 73.692 C 97.125 76.392,95.228 80.670,94.214 83.200 C 93.200 85.730,92.117 88.340,91.807 89.000 C 87.443 98.281,84.960 106.191,83.427 115.701 C 82.756 119.864,81.144 123.880,79.383 125.781 C 77.508 127.804,77.049 128.736,77.601 129.401 C 78.288 130.229,81.766 131.200,84.044 131.200 C 85.911 131.200,87.170 131.884,87.224 132.929 C 87.238 133.188,87.229 137.990,87.206 143.600 C 87.161 154.115,87.643 161.761,88.590 165.600 C 88.889 166.810,89.259 168.953,89.413 170.363 C 89.567 171.772,89.942 173.521,90.247 174.250 C 90.551 174.978,90.800 176.261,90.800 177.100 C 90.800 177.939,91.073 179.610,91.406 180.813 C 91.740 182.016,92.264 184.710,92.570 186.800 C 92.877 188.890,93.549 191.855,94.064 193.388 L 95.000 196.177 97.499 196.676 C 101.003 197.376,104.074 198.936,106.883 201.442 C 110.088 204.302,110.821 203.578,109.392 198.964 C 107.484 192.804,107.335 181.298,109.068 174.000 C 109.408 172.570,109.842 170.500,110.034 169.401 C 110.794 165.045,112.881 165.356,115.961 170.285 C 118.403 174.192,123.449 178.200,130.631 181.936 C 135.273 184.351,136.401 184.209,137.441 181.076 C 138.161 178.909,141.217 173.671,142.370 172.627 C 142.992 172.064,143.320 172.233,146.225 174.616 C 157.919 184.206,167.515 191.777,169.306 192.826 C 170.458 193.501,172.210 194.548,173.200 195.153 C 176.483 197.158,183.352 200.616,186.800 201.999 C 188.670 202.749,190.400 203.507,190.644 203.684 C 190.888 203.860,191.878 204.262,192.844 204.576 C 193.810 204.890,195.860 205.618,197.400 206.193 C 207.678 210.033,231.004 214.407,241.129 214.394 C 247.402 214.386,247.318 214.487,244.825 209.950 C 241.002 202.992,238.192 196.075,238.901 195.366 C 239.018 195.249,239.785 195.434,240.606 195.777 C 241.426 196.119,242.391 196.400,242.749 196.401 C 243.107 196.402,244.480 197.054,245.800 197.850 C 254.043 202.824,263.172 206.400,267.626 206.400 C 270.389 206.400,270.564 206.196,270.438 203.128 C 270.327 200.392,270.987 199.799,272.731 201.069 C 275.842 203.334,276.685 210.137,274.412 214.642 C 272.918 217.604,273.299 218.327,275.975 217.607 C 279.791 216.579,279.679 221.790,275.743 228.451 C 273.072 232.970,275.382 233.229,281.837 229.136 C 287.029 225.843,288.652 214.625,284.533 210.506 C 282.484 208.457,282.955 207.447,287.720 203.673 C 292.813 199.640,295.389 199.371,298.370 202.562 C 301.585 206.004,307.245 197.482,308.970 186.600 C 309.249 184.840,309.670 182.934,309.904 182.364 C 310.139 181.795,310.625 178.348,310.984 174.704 C 312.479 159.526,315.852 153.149,319.913 157.824 C 320.996 159.071,321.879 158.876,322.221 157.317 C 322.355 156.703,322.811 154.771,323.233 153.024 C 324.178 149.110,324.292 139.381,323.446 134.800 C 323.141 133.150,322.677 129.730,322.416 127.200 C 322.155 124.670,321.595 120.462,321.171 117.850 C 320.747 115.237,320.400 112.605,320.400 112.000 C 320.400 111.395,320.119 110.113,319.775 109.150 C 319.431 108.188,318.968 106.432,318.745 105.248 C 318.522 104.065,317.544 101.414,316.570 99.358 C 313.008 91.835,314.651 89.926,320.000 95.375 C 327.529 103.045,325.613 91.139,317.259 78.347 C 316.200 76.726,314.654 74.320,313.822 73.000 C 312.991 71.680,311.971 70.112,311.555 69.516 C 311.140 68.920,310.800 68.323,310.800 68.188 C 310.800 63.963,293.671 51.854,282.400 48.112 C 281.410 47.783,280.060 47.286,279.400 47.007 C 278.740 46.728,275.878 45.746,273.040 44.825 C 265.522 42.385,263.822 41.403,259.169 36.808 C 252.529 30.252,242.947 23.595,235.000 20.018 C 233.460 19.325,231.660 18.508,231.000 18.203 C 228.355 16.981,225.950 15.967,223.537 15.057 C 222.141 14.532,219.290 13.427,217.200 12.603 C 215.110 11.779,212.590 10.788,211.600 10.401 C 210.610 10.014,209.080 9.577,208.200 9.429 C 207.320 9.282,205.520 8.825,204.200 8.415 C 202.880 8.004,200.360 7.558,198.600 7.424 C 196.840 7.290,194.050 6.919,192.400 6.599 C 190.750 6.280,187.657 5.848,185.527 5.638 C 183.396 5.428,181.293 5.064,180.853 4.828 C 180.113 4.432,173.560 4.354,168.000 4.675 M169.905 316.700 C 169.369 319.147,171.394 321.224,172.588 319.452 C 173.494 318.108,174.800 317.562,174.800 318.528 C 174.800 319.266,175.465 319.524,179.200 320.231 C 180.850 320.543,183.010 320.971,184.000 321.182 C 184.990 321.393,189.730 321.573,194.534 321.583 C 203.155 321.600,205.089 321.392,209.942 319.924 C 210.679 319.701,212.228 319.636,213.384 319.781 C 215.793 320.082,217.335 318.364,215.923 316.952 C 215.199 316.228,212.000 317.281,212.000 318.243 C 212.000 318.685,211.090 318.800,207.587 318.800 C 204.692 318.800,202.709 318.994,201.823 319.365 C 199.824 320.200,185.585 320.418,184.633 319.627 C 184.203 319.270,182.385 318.949,179.724 318.759 C 177.399 318.593,175.304 318.264,175.069 318.029 C 174.833 317.793,174.354 317.600,174.005 317.600 C 173.655 317.600,172.663 317.240,171.800 316.800 C 169.914 315.839,170.092 315.848,169.905 316.700 M161.200 341.193 C 160.686 341.519,160.729 341.703,161.498 342.474 C 162.331 343.309,162.445 343.327,163.053 342.718 C 164.327 341.444,162.793 340.182,161.200 341.193 M224.651 344.612 C 224.053 346.170,224.353 347.268,225.300 346.984 C 226.789 346.538,227.455 345.694,226.952 344.892 C 226.369 343.962,224.966 343.791,224.651 344.612 M212.600 349.117 C 212.160 349.210,211.478 349.627,211.084 350.043 C 210.691 350.459,210.196 350.800,209.984 350.800 C 209.773 350.800,209.600 351.070,209.600 351.400 C 209.600 352.354,210.477 352.075,212.167 350.583 C 213.820 349.124,213.904 348.841,212.600 349.117 M174.800 349.600 C 174.800 349.820,175.171 350.000,175.624 350.000 C 176.077 350.000,176.336 349.820,176.200 349.600 C 176.064 349.380,175.693 349.200,175.376 349.200 C 175.059 349.200,174.800 349.380,174.800 349.600 M176.575 350.840 C 176.451 351.041,176.676 351.327,177.075 351.474 C 177.474 351.622,178.697 352.521,179.793 353.471 C 180.889 354.422,181.999 355.200,182.260 355.200 C 182.520 355.200,182.814 355.425,182.912 355.700 C 183.010 355.975,183.219 356.081,183.376 355.936 C 183.805 355.539,180.837 352.424,179.778 352.159 C 179.272 352.032,178.770 351.699,178.663 351.419 C 178.417 350.779,176.877 350.352,176.575 350.840 M248.313 351.294 C 248.988 351.619,249.348 351.612,249.693 351.267 C 250.049 350.911,249.832 350.806,248.780 350.827 C 247.484 350.852,247.456 350.881,248.313 351.294 M181.200 363.600 C 181.200 364.153,181.467 364.400,182.062 364.400 C 182.899 364.400,182.903 364.376,182.200 363.600 C 181.802 363.160,181.414 362.800,181.338 362.800 C 181.262 362.800,181.200 363.160,181.200 363.600 " stroke="none" fill="#2a2a2a" fill-rule="evenodd"></path><path id="path3" d="M166.211 3.099 C 164.677 3.177,163.311 3.420,163.175 3.640 C 163.034 3.868,159.870 4.125,155.764 4.240 C 147.444 4.474,146.244 4.614,145.413 5.444 C 143.839 7.018,145.507 9.691,148.348 10.145 C 151.106 10.586,156.204 13.894,160.300 17.902 C 163.588 21.118,163.533 21.719,159.921 22.030 C 158.452 22.156,156.994 22.473,156.680 22.733 C 156.366 22.994,155.100 23.394,153.865 23.622 C 152.631 23.850,151.121 24.297,150.510 24.616 C 149.900 24.934,149.186 25.196,148.924 25.198 C 148.662 25.199,146.918 25.920,145.048 26.800 C 143.178 27.680,141.480 28.400,141.273 28.400 C 141.067 28.400,140.698 28.641,140.454 28.935 C 140.209 29.230,139.287 29.687,138.405 29.951 C 137.522 30.216,136.800 30.591,136.800 30.784 C 136.800 30.978,136.215 31.261,135.500 31.413 C 134.785 31.565,133.930 31.919,133.600 32.199 C 133.270 32.480,131.959 33.259,130.686 33.932 C 129.414 34.604,127.704 35.660,126.886 36.277 C 126.069 36.895,124.860 37.807,124.200 38.304 C 123.540 38.800,122.595 39.381,122.100 39.594 C 121.605 39.806,121.200 40.153,121.200 40.363 C 121.200 40.574,120.795 40.870,120.300 41.020 C 119.805 41.171,119.084 41.572,118.697 41.912 C 117.877 42.632,116.704 43.339,114.929 44.182 C 114.230 44.515,112.771 45.309,111.687 45.949 C 110.603 46.588,109.151 47.235,108.460 47.387 C 107.770 47.538,107.063 47.917,106.889 48.227 C 106.715 48.538,105.679 48.908,104.586 49.050 C 103.494 49.192,102.295 49.572,101.923 49.895 C 101.550 50.219,99.840 50.640,98.123 50.833 C 91.955 51.523,90.652 52.494,91.967 55.421 C 92.768 57.203,96.913 61.570,99.713 63.580 L 101.572 64.916 100.786 66.020 C 100.354 66.627,100.000 67.262,100.000 67.430 C 100.000 67.599,99.757 68.021,99.459 68.369 C 99.162 68.716,98.493 69.810,97.972 70.800 C 97.451 71.790,96.811 72.870,96.550 73.200 C 96.288 73.530,95.863 74.592,95.606 75.560 C 95.348 76.528,94.881 77.576,94.568 77.889 C 94.256 78.201,94.000 78.960,94.000 79.575 C 94.000 80.189,93.663 81.121,93.251 81.646 C 92.839 82.171,92.373 83.365,92.216 84.300 C 92.059 85.235,91.778 86.000,91.592 86.000 C 91.406 86.000,91.130 86.405,90.979 86.900 C 90.640 88.013,89.385 90.900,88.366 92.912 C 87.945 93.744,87.600 94.667,87.600 94.963 C 87.600 95.260,87.342 95.716,87.028 95.977 C 86.713 96.238,86.256 97.379,86.014 98.511 C 85.771 99.644,85.384 100.686,85.154 100.828 C 84.925 100.970,84.587 102.288,84.405 103.758 C 84.223 105.227,83.848 106.701,83.572 107.034 C 83.295 107.367,82.929 109.450,82.758 111.663 C 82.547 114.384,82.244 115.909,81.823 116.375 C 81.480 116.753,81.200 117.591,81.200 118.237 C 81.200 119.753,78.148 125.470,77.090 125.937 C 75.096 126.816,75.702 130.914,77.932 131.632 C 78.739 131.892,79.638 132.293,79.928 132.524 C 80.219 132.756,81.479 132.977,82.728 133.016 C 83.978 133.056,85.214 133.113,85.475 133.144 C 85.830 133.186,85.981 137.161,86.075 148.900 C 86.169 160.725,86.326 164.821,86.712 165.496 C 86.993 165.988,87.474 168.058,87.781 170.096 C 88.088 172.133,88.521 174.520,88.742 175.400 C 89.809 179.641,90.452 182.950,90.797 185.975 C 91.005 187.797,91.370 189.523,91.608 189.809 C 92.857 191.315,92.580 195.935,91.158 197.298 C 89.620 198.773,87.600 201.377,87.600 201.884 C 87.600 202.070,87.240 202.530,86.800 202.907 C 86.360 203.284,86.000 203.926,86.000 204.335 C 86.000 204.743,85.640 205.493,85.200 206.000 C 84.678 206.601,84.400 207.497,84.400 208.572 C 84.400 209.500,84.094 210.655,83.700 211.211 C 82.839 212.427,82.650 221.412,83.475 221.922 C 83.736 222.084,84.137 222.708,84.365 223.308 C 84.593 223.909,85.055 224.400,85.390 224.400 C 85.726 224.400,86.000 224.566,86.000 224.768 C 86.000 224.970,86.971 226.062,88.157 227.194 C 90.759 229.677,92.400 232.656,92.400 234.894 C 92.400 236.299,92.659 236.773,94.343 238.457 L 96.286 240.400 100.524 240.400 C 102.914 240.400,105.211 240.195,105.792 239.931 C 107.323 239.233,107.862 239.937,107.291 241.887 C 105.854 246.786,106.744 260.210,108.783 264.384 C 111.462 269.866,112.272 270.950,118.999 278.038 C 121.419 280.588,124.840 284.206,126.600 286.077 C 128.360 287.948,130.613 290.093,131.607 290.845 C 133.617 292.365,136.207 294.630,137.156 295.700 C 137.498 296.085,137.999 296.400,138.269 296.400 C 138.539 296.400,138.904 296.632,139.080 296.916 C 139.256 297.200,140.705 298.496,142.300 299.796 C 143.895 301.096,145.200 302.304,145.200 302.480 C 145.200 302.656,145.404 302.800,145.654 302.800 C 145.904 302.800,146.517 303.205,147.016 303.700 C 148.637 305.306,156.773 310.800,157.531 310.800 C 157.767 310.800,158.104 311.025,158.280 311.300 C 158.456 311.575,159.647 312.340,160.928 313.000 C 162.208 313.660,163.541 314.515,163.890 314.900 C 164.239 315.285,164.683 315.600,164.878 315.600 C 168.714 315.600,170.221 323.337,167.837 330.794 C 167.047 333.266,166.400 335.685,166.400 336.168 C 166.400 337.648,165.519 338.379,163.400 338.658 C 162.300 338.803,160.971 339.254,160.446 339.661 C 159.921 340.067,159.216 340.400,158.878 340.400 C 158.540 340.400,157.969 340.666,157.611 340.990 C 157.252 341.315,155.740 341.753,154.252 341.964 C 152.763 342.175,151.306 342.546,151.013 342.789 C 150.720 343.033,149.356 343.413,147.982 343.634 C 146.608 343.855,145.110 344.298,144.653 344.618 C 144.196 344.938,143.360 345.200,142.796 345.200 C 142.231 345.200,141.084 345.550,140.246 345.977 C 139.408 346.404,138.154 346.869,137.461 347.011 C 136.767 347.153,134.918 347.883,133.351 348.634 C 131.784 349.385,130.254 350.006,129.951 350.014 C 129.648 350.021,128.680 350.375,127.800 350.800 C 126.920 351.225,125.950 351.579,125.644 351.586 C 125.338 351.594,124.348 351.949,123.444 352.375 C 122.540 352.801,121.143 353.256,120.340 353.385 C 119.537 353.515,118.660 353.886,118.391 354.211 C 118.122 354.535,117.606 354.800,117.245 354.800 C 116.884 354.800,115.916 355.160,115.096 355.600 C 114.275 356.040,113.426 356.400,113.210 356.400 C 112.675 356.400,106.040 359.644,104.811 360.506 C 104.267 360.888,103.542 361.200,103.200 361.200 C 102.858 361.200,102.270 361.560,101.893 362.000 C 101.516 362.440,100.932 362.800,100.594 362.800 C 99.741 362.800,94.913 367.663,94.166 369.275 C 93.828 370.004,93.295 371.050,92.982 371.600 C 92.668 372.150,92.409 372.893,92.406 373.251 C 92.403 373.609,92.131 374.125,91.803 374.398 C 91.474 374.670,91.008 375.637,90.766 376.547 C 90.524 377.456,90.106 378.470,89.838 378.800 C 89.570 379.130,89.029 380.210,88.637 381.200 C 88.245 382.190,87.491 383.918,86.962 385.040 C 86.433 386.162,86.000 387.304,86.000 387.577 C 86.000 387.850,85.640 388.531,85.200 389.091 C 84.760 389.650,84.400 390.512,84.400 391.005 C 84.400 391.498,84.137 392.120,83.815 392.387 C 83.494 392.654,83.114 393.261,82.970 393.736 C 82.827 394.211,82.100 395.531,81.355 396.668 C 79.804 399.035,79.643 400.000,80.800 400.000 C 81.240 400.000,81.600 399.735,81.600 399.412 C 81.600 399.088,82.114 398.053,82.741 397.112 C 85.049 393.651,86.851 390.375,87.578 388.314 C 89.355 383.285,89.642 382.545,90.205 381.538 C 90.532 380.954,90.800 380.172,90.800 379.799 C 90.800 378.710,95.440 369.544,96.846 367.855 C 98.231 366.192,104.983 361.601,106.046 361.600 C 106.401 361.600,107.143 361.245,107.694 360.812 C 108.245 360.379,110.204 359.412,112.048 358.664 C 113.892 357.915,116.390 356.843,117.600 356.281 C 121.624 354.412,125.371 352.877,128.000 352.020 C 129.430 351.554,130.960 351.022,131.400 350.837 C 133.203 350.082,142.451 347.126,145.936 346.190 C 147.990 345.639,150.455 344.830,151.414 344.394 C 152.372 343.957,154.471 343.315,156.078 342.966 C 157.685 342.618,159.706 341.964,160.569 341.515 C 161.432 341.065,163.263 340.607,164.638 340.496 L 167.137 340.296 172.225 345.548 C 175.023 348.436,177.563 350.800,177.869 350.800 C 178.175 350.800,178.529 351.070,178.655 351.400 C 178.782 351.730,179.121 352.000,179.409 352.000 C 179.697 352.000,181.613 353.458,183.666 355.241 C 192.632 363.023,198.821 362.075,209.663 351.261 C 210.028 350.898,210.748 350.282,211.263 349.894 C 211.778 349.506,213.730 347.923,215.600 346.378 C 217.470 344.833,219.187 343.424,219.415 343.247 C 220.508 342.404,226.473 343.841,227.153 345.112 C 227.462 345.690,228.499 346.016,231.677 346.537 C 233.945 346.908,237.240 347.567,239.000 348.001 C 240.760 348.435,242.560 348.799,243.000 348.809 C 243.440 348.819,245.330 349.374,247.200 350.041 C 249.070 350.709,251.230 351.441,252.000 351.668 C 252.770 351.895,254.570 352.664,256.000 353.375 C 257.430 354.087,259.102 354.794,259.716 354.947 C 260.330 355.099,262.146 355.839,263.752 356.590 C 265.358 357.342,268.096 358.346,269.836 358.821 C 273.254 359.754,273.859 359.993,278.400 362.199 C 281.268 363.592,284.429 365.753,284.752 366.542 C 284.836 366.746,285.528 367.604,286.290 368.447 C 287.553 369.845,291.579 377.247,291.595 378.200 C 291.599 378.420,292.294 380.220,293.141 382.200 C 293.987 384.180,294.896 386.679,295.159 387.754 C 295.423 388.828,295.995 390.406,296.431 391.261 C 296.867 392.115,297.399 393.739,297.613 394.871 C 298.344 398.723,298.807 400.000,299.471 400.000 C 300.296 400.000,299.992 395.658,299.068 394.248 C 298.736 393.741,298.276 392.312,298.047 391.073 C 297.818 389.834,297.354 388.284,297.015 387.630 C 296.677 386.975,296.400 385.957,296.400 385.367 C 296.400 384.777,296.062 383.733,295.649 383.047 C 295.235 382.361,294.777 381.125,294.631 380.300 C 294.484 379.475,294.206 378.800,294.013 378.800 C 293.820 378.800,293.443 378.138,293.176 377.328 C 291.249 371.487,283.437 361.755,280.087 361.019 C 279.379 360.864,278.800 360.592,278.800 360.416 C 278.800 360.239,278.035 359.824,277.100 359.493 C 276.165 359.163,274.860 358.699,274.200 358.463 C 273.540 358.228,271.650 357.652,270.000 357.183 C 268.350 356.715,266.260 355.987,265.356 355.566 C 264.452 355.145,263.445 354.800,263.117 354.800 C 262.790 354.800,262.107 354.440,261.600 354.000 C 261.093 353.560,260.248 353.200,259.723 353.200 C 259.197 353.200,258.280 352.857,257.684 352.437 C 257.088 352.018,255.942 351.563,255.139 351.427 C 254.335 351.290,253.584 350.936,253.471 350.640 C 253.357 350.343,252.627 349.982,251.849 349.836 C 251.071 349.690,249.931 349.308,249.317 348.988 C 248.703 348.667,247.925 348.404,247.589 348.402 C 247.253 348.401,246.581 348.122,246.096 347.782 C 245.610 347.442,244.265 347.061,243.107 346.934 C 241.948 346.808,240.573 346.438,240.051 346.111 C 239.529 345.784,237.459 345.369,235.451 345.187 C 231.414 344.823,228.179 343.877,227.084 342.742 C 226.662 342.304,225.809 342.000,225.003 342.000 C 221.809 342.000,220.156 339.706,219.561 334.447 C 219.377 332.823,219.010 330.843,218.746 330.047 C 217.854 327.365,218.046 317.515,219.000 317.008 C 219.440 316.775,220.520 316.133,221.400 315.582 C 222.280 315.031,225.700 313.262,229.000 311.651 C 232.300 310.040,235.270 308.564,235.600 308.372 C 235.930 308.180,237.075 307.565,238.145 307.005 C 239.215 306.445,241.105 305.288,242.345 304.433 C 243.585 303.578,244.988 302.764,245.463 302.624 C 245.938 302.484,246.427 302.106,246.550 301.785 C 246.674 301.463,247.116 301.200,247.534 301.200 C 247.951 301.200,248.750 300.840,249.309 300.400 C 249.869 299.960,250.478 299.597,250.663 299.593 C 251.140 299.582,253.955 297.621,255.532 296.200 C 256.264 295.540,257.614 294.510,258.532 293.912 C 259.449 293.313,260.485 292.548,260.834 292.212 C 261.182 291.875,261.668 291.600,261.914 291.600 C 262.159 291.600,262.504 291.371,262.680 291.090 C 262.856 290.810,263.516 290.252,264.146 289.851 C 264.777 289.449,266.674 287.744,268.362 286.060 C 270.050 284.377,272.324 282.145,273.416 281.100 C 276.184 278.449,277.200 277.184,277.200 276.391 C 277.200 276.015,277.545 275.269,277.967 274.733 C 278.389 274.196,278.866 273.047,279.027 272.179 C 279.189 271.310,279.552 270.240,279.835 269.800 C 280.117 269.360,280.532 267.830,280.756 266.400 C 281.477 261.794,281.995 259.265,282.451 258.119 C 282.697 257.504,283.011 255.470,283.149 253.600 L 283.400 250.200 286.500 250.200 C 288.295 250.200,289.602 250.368,289.606 250.600 C 289.610 250.867,289.710 250.867,289.906 250.600 C 290.494 249.800,291.963 249.956,291.800 250.801 C 291.717 251.231,291.794 251.673,291.972 251.783 C 292.149 251.892,292.273 251.581,292.247 251.091 C 292.213 250.448,292.435 250.188,293.045 250.157 C 295.957 250.010,298.000 247.528,298.000 244.137 C 298.000 242.783,298.216 241.978,298.700 241.533 C 299.085 241.178,299.846 240.141,300.390 239.228 C 300.935 238.315,302.780 236.297,304.490 234.743 C 306.201 233.188,307.600 231.693,307.600 231.420 C 307.600 231.147,307.942 230.615,308.359 230.237 C 309.720 229.005,309.639 221.982,308.249 220.591 C 307.852 220.195,307.600 219.276,307.600 218.225 C 307.600 217.155,307.318 216.149,306.852 215.554 C 306.441 215.029,305.967 213.973,305.800 213.206 C 305.632 212.439,305.271 211.449,304.996 211.006 C 304.722 210.563,304.387 209.600,304.252 208.868 C 304.117 208.135,303.645 207.075,303.204 206.514 C 301.985 204.964,302.207 203.956,304.200 202.000 C 305.190 201.028,306.000 200.029,306.000 199.779 C 306.000 199.529,306.341 199.015,306.758 198.638 C 307.175 198.260,307.634 197.167,307.778 196.209 C 307.922 195.250,308.281 194.265,308.576 194.020 C 308.871 193.775,309.234 192.769,309.381 191.785 C 309.529 190.801,309.907 189.502,310.222 188.898 C 310.537 188.294,310.804 187.170,310.815 186.400 C 310.826 185.630,311.093 184.280,311.408 183.400 C 311.723 182.520,312.157 180.450,312.374 178.800 C 312.590 177.150,313.165 172.740,313.651 169.000 C 314.137 165.260,314.668 162.110,314.831 161.999 C 314.993 161.889,315.252 161.132,315.404 160.318 C 315.887 157.744,317.365 157.187,318.993 158.965 C 321.021 161.178,323.600 160.413,323.600 157.599 C 323.600 156.938,323.960 155.725,324.400 154.904 C 325.474 152.901,325.594 134.120,324.551 131.400 C 324.186 130.447,323.801 127.453,323.599 124.000 C 323.413 120.810,323.068 117.695,322.832 117.078 C 322.596 116.460,322.217 114.312,321.989 112.304 C 321.762 110.296,321.418 108.461,321.225 108.226 C 321.033 107.992,320.741 106.900,320.578 105.800 C 320.318 104.050,319.745 102.521,318.368 99.900 C 317.598 98.434,317.270 97.763,316.756 96.600 C 316.464 95.940,316.160 95.265,316.080 95.100 C 315.404 93.714,318.124 95.216,320.244 97.400 C 324.687 101.977,328.715 99.329,325.802 93.746 C 325.474 93.116,325.204 91.875,325.202 90.989 C 325.201 89.875,324.953 89.166,324.400 88.693 C 323.960 88.316,323.588 87.601,323.573 87.104 C 323.559 86.607,323.017 85.300,322.370 84.200 C 321.723 83.100,320.968 81.750,320.692 81.200 C 319.897 79.615,318.072 76.892,317.616 76.610 C 317.387 76.469,317.200 75.998,317.200 75.564 C 317.200 75.130,316.939 74.675,316.619 74.552 C 316.300 74.430,315.836 73.715,315.588 72.965 C 315.341 72.214,314.986 71.600,314.800 71.600 C 314.614 71.600,314.254 70.970,314.000 70.200 C 313.746 69.430,313.366 68.800,313.156 68.800 C 312.947 68.800,312.654 68.485,312.506 68.100 C 311.498 65.472,306.066 59.701,301.749 56.671 C 297.669 53.807,295.453 52.415,294.961 52.407 C 294.720 52.403,294.107 52.040,293.600 51.600 C 293.093 51.160,292.369 50.800,291.993 50.800 C 291.616 50.800,290.848 50.438,290.286 49.996 C 289.725 49.555,288.722 49.084,288.058 48.952 C 287.394 48.819,286.764 48.484,286.658 48.207 C 286.552 47.930,285.955 47.578,285.332 47.425 C 284.710 47.273,283.108 46.636,281.773 46.009 C 280.439 45.383,278.549 44.657,277.573 44.396 C 276.598 44.135,275.620 43.780,275.400 43.606 C 275.180 43.433,274.190 43.160,273.200 43.001 C 272.210 42.841,270.645 42.371,269.722 41.956 C 268.799 41.540,267.729 41.200,267.343 41.200 C 266.331 41.200,263.713 39.321,261.352 36.900 C 260.225 35.745,259.112 34.800,258.879 34.800 C 258.645 34.800,258.346 34.459,258.214 34.043 C 258.082 33.627,257.619 33.194,257.187 33.081 C 256.754 32.967,256.400 32.588,256.400 32.237 C 256.400 31.887,256.136 31.600,255.814 31.600 C 255.492 31.600,255.035 31.240,254.800 30.800 C 254.565 30.360,254.123 30.000,253.819 30.000 C 253.515 30.000,253.207 29.843,253.133 29.650 C 252.725 28.579,245.290 23.602,241.900 22.130 C 241.075 21.772,240.400 21.340,240.400 21.170 C 240.400 21.001,239.725 20.643,238.900 20.374 C 238.075 20.106,237.256 19.642,237.080 19.343 C 236.904 19.045,236.563 18.800,236.321 18.800 C 236.080 18.800,233.671 17.720,230.968 16.400 C 228.265 15.080,225.851 14.000,225.605 14.000 C 225.358 14.000,224.401 13.660,223.478 13.245 C 222.555 12.830,221.170 12.360,220.400 12.201 C 219.630 12.041,218.730 11.684,218.400 11.406 C 218.070 11.128,217.143 10.784,216.340 10.640 C 215.537 10.496,214.676 10.133,214.427 9.833 C 214.178 9.533,213.174 9.167,212.196 9.020 C 211.219 8.874,210.325 8.602,210.211 8.417 C 210.096 8.232,209.057 7.866,207.901 7.605 C 206.746 7.343,205.080 6.886,204.200 6.590 C 203.320 6.294,201.008 5.940,199.063 5.802 C 197.118 5.665,195.048 5.362,194.463 5.129 C 193.878 4.896,190.856 4.580,187.747 4.428 C 183.233 4.206,181.957 4.014,181.418 3.475 C 180.739 2.796,174.966 2.653,166.211 3.099 M180.853 4.828 C 181.293 5.064,183.396 5.428,185.527 5.638 C 187.657 5.848,190.750 6.280,192.400 6.599 C 194.050 6.919,196.840 7.290,198.600 7.424 C 200.360 7.558,202.880 8.004,204.200 8.415 C 205.520 8.825,207.320 9.282,208.200 9.429 C 209.080 9.577,210.610 10.014,211.600 10.401 C 212.590 10.788,215.110 11.779,217.200 12.603 C 219.290 13.427,222.141 14.532,223.537 15.057 C 225.950 15.967,228.355 16.981,231.000 18.203 C 231.660 18.508,233.460 19.325,235.000 20.018 C 242.947 23.595,252.529 30.252,259.169 36.808 C 263.822 41.403,265.522 42.385,273.040 44.825 C 275.878 45.746,278.740 46.728,279.400 47.007 C 280.060 47.286,281.410 47.783,282.400 48.112 C 293.671 51.854,310.800 63.963,310.800 68.188 C 310.800 68.323,311.140 68.920,311.555 69.516 C 311.971 70.112,312.991 71.680,313.822 73.000 C 314.654 74.320,316.200 76.726,317.259 78.347 C 325.613 91.139,327.529 103.045,320.000 95.375 C 314.651 89.926,313.008 91.835,316.570 99.358 C 317.544 101.414,318.522 104.065,318.745 105.248 C 318.968 106.432,319.431 108.188,319.775 109.150 C 320.119 110.113,320.400 111.395,320.400 112.000 C 320.400 112.605,320.747 115.237,321.171 117.850 C 321.595 120.462,322.155 124.670,322.416 127.200 C 322.677 129.730,323.141 133.150,323.446 134.800 C 324.292 139.381,324.178 149.110,323.233 153.024 C 322.811 154.771,322.355 156.703,322.221 157.317 C 321.879 158.876,320.996 159.071,319.913 157.824 C 315.852 153.149,312.479 159.526,310.984 174.704 C 310.625 178.348,310.139 181.795,309.904 182.364 C 309.670 182.934,309.249 184.840,308.970 186.600 C 307.825 193.820,306.265 197.604,302.960 201.173 C 300.462 203.872,299.785 204.077,298.370 202.562 C 295.389 199.371,292.813 199.640,287.720 203.673 C 282.955 207.447,282.484 208.457,284.533 210.506 C 288.652 214.625,287.029 225.843,281.837 229.136 C 275.382 233.229,273.072 232.970,275.743 228.451 C 279.679 221.790,279.791 216.579,275.975 217.607 C 273.299 218.327,272.918 217.604,274.412 214.642 C 276.685 210.137,275.842 203.334,272.731 201.069 C 270.987 199.799,270.327 200.392,270.438 203.128 C 270.564 206.196,270.389 206.400,267.626 206.400 C 263.172 206.400,254.043 202.824,245.800 197.850 C 244.480 197.054,243.107 196.402,242.749 196.401 C 242.391 196.400,241.426 196.119,240.606 195.777 C 239.785 195.434,239.018 195.249,238.901 195.366 C 238.192 196.075,241.002 202.992,244.825 209.950 C 247.318 214.487,247.402 214.386,241.129 214.394 C 231.004 214.407,207.678 210.033,197.400 206.193 C 195.860 205.618,193.810 204.890,192.844 204.576 C 191.878 204.262,190.888 203.860,190.644 203.684 C 190.400 203.507,188.670 202.749,186.800 201.999 C 183.352 200.616,176.483 197.158,173.200 195.153 C 172.210 194.548,170.458 193.501,169.306 192.826 C 167.515 191.777,157.919 184.206,146.225 174.616 C 143.320 172.233,142.992 172.064,142.370 172.627 C 141.217 173.671,138.161 178.909,137.441 181.076 C 136.401 184.209,135.273 184.351,130.631 181.936 C 123.449 178.200,118.403 174.192,115.961 170.285 C 112.881 165.356,110.794 165.045,110.034 169.401 C 109.842 170.500,109.408 172.570,109.068 174.000 C 107.335 181.298,107.484 192.804,109.392 198.964 C 110.821 203.578,110.088 204.302,106.883 201.442 C 104.074 198.936,101.003 197.376,97.499 196.676 L 95.000 196.177 94.064 193.388 C 93.549 191.855,92.877 188.890,92.570 186.800 C 92.264 184.710,91.740 182.016,91.406 180.813 C 91.073 179.610,90.800 177.939,90.800 177.100 C 90.800 176.261,90.551 174.978,90.247 174.250 C 89.942 173.521,89.567 171.772,89.413 170.363 C 89.259 168.953,88.889 166.810,88.590 165.600 C 87.643 161.761,87.161 154.115,87.206 143.600 C 87.229 137.990,87.238 133.188,87.224 132.929 C 87.170 131.884,85.911 131.200,84.044 131.200 C 81.766 131.200,78.288 130.229,77.601 129.401 C 77.049 128.736,77.508 127.804,79.383 125.781 C 81.144 123.880,82.756 119.864,83.427 115.701 C 84.960 106.191,87.443 98.281,91.807 89.000 C 92.117 88.340,93.200 85.730,94.214 83.200 C 95.228 80.670,97.125 76.392,98.429 73.692 C 99.733 70.993,100.800 68.636,100.800 68.454 C 100.800 68.273,101.160 67.798,101.600 67.400 C 103.004 66.130,102.663 64.268,100.706 62.516 C 91.151 53.961,91.126 53.436,100.200 51.629 C 106.384 50.398,113.675 47.214,119.400 43.246 C 131.047 35.174,130.643 35.422,137.400 32.166 C 146.193 27.929,157.402 23.632,161.368 22.978 C 167.487 21.970,160.201 13.164,149.600 8.756 C 145.732 7.148,145.958 6.000,150.144 6.000 C 151.489 6.000,155.562 5.730,159.195 5.401 C 170.555 4.371,179.554 4.133,180.853 4.828 M113.200 168.740 C 113.200 170.047,118.092 175.245,122.600 178.730 C 126.867 182.028,133.431 185.200,135.988 185.200 C 137.306 185.200,137.830 184.619,139.773 181.000 C 142.814 175.336,144.455 174.628,147.639 177.607 C 148.945 178.829,158.973 187.011,163.855 190.838 C 169.161 194.997,183.563 203.186,185.600 203.202 C 185.930 203.205,187.100 203.650,188.200 204.191 C 189.300 204.732,190.443 205.181,190.740 205.187 C 191.036 205.194,191.846 205.457,192.540 205.772 C 199.390 208.881,208.441 211.433,218.194 213.007 C 220.171 213.326,222.061 213.692,222.394 213.820 C 223.923 214.407,234.383 215.712,239.800 215.991 C 247.085 216.367,247.016 216.331,245.029 218.693 C 240.063 224.594,240.542 237.754,245.870 241.830 C 250.912 245.686,256.596 241.907,257.990 233.772 C 259.812 223.143,257.857 216.979,252.237 215.628 C 249.087 214.872,246.193 210.645,242.981 202.111 C 241.386 197.873,242.104 197.484,246.709 200.089 C 261.159 208.266,272.400 210.163,272.400 204.426 C 272.400 203.193,273.032 203.428,273.636 204.887 C 274.679 207.406,274.357 211.564,272.900 214.391 C 270.849 218.368,271.317 219.400,275.170 219.400 C 278.192 219.400,277.975 221.567,274.300 228.074 C 271.211 233.544,273.657 235.252,279.914 231.993 C 287.480 228.053,290.924 217.433,286.698 211.068 C 284.596 207.902,285.016 207.035,290.472 203.286 C 294.526 200.501,299.058 203.259,301.022 209.705 C 301.172 210.197,301.539 210.880,301.838 211.222 C 302.724 212.234,304.817 219.534,305.272 223.200 C 305.908 228.314,305.495 229.392,301.213 233.796 C 297.228 237.895,295.777 240.155,295.210 243.149 C 294.261 248.154,291.236 249.568,286.972 247.000 C 282.941 244.572,281.050 245.304,280.372 249.555 C 280.148 250.960,279.718 252.700,279.417 253.421 C 279.115 254.143,278.659 257.133,278.402 260.066 C 277.494 270.442,272.979 279.490,266.579 283.758 C 265.224 284.661,262.335 286.960,260.158 288.867 C 256.359 292.195,250.516 296.400,249.692 296.400 C 249.475 296.400,249.061 296.686,248.771 297.035 C 248.481 297.385,246.704 298.466,244.822 299.438 C 242.940 300.409,241.130 301.374,240.800 301.581 C 240.470 301.789,239.728 302.193,239.151 302.479 C 236.069 304.009,230.684 306.863,228.400 308.176 C 226.970 308.998,225.260 309.935,224.600 310.257 C 223.076 311.001,221.121 312.098,219.928 312.878 C 219.418 313.212,217.740 313.887,216.200 314.379 C 214.660 314.870,212.410 315.631,211.200 316.071 C 205.000 318.321,185.819 318.589,178.400 316.529 C 177.190 316.193,174.878 315.579,173.263 315.166 C 171.648 314.752,169.257 313.871,167.951 313.207 C 166.645 312.543,165.265 312.000,164.885 312.000 C 162.406 312.000,149.837 302.561,137.163 291.180 C 135.314 289.519,132.630 287.238,131.200 286.112 C 128.315 283.839,125.825 281.314,123.200 278.000 C 122.242 276.790,119.725 274.090,117.607 272.000 C 110.772 265.254,110.000 262.617,110.000 246.007 C 110.000 238.570,109.868 235.628,109.520 235.280 C 108.748 234.508,106.642 234.715,105.625 235.663 C 102.338 238.725,95.695 236.831,95.022 232.639 C 94.657 230.367,92.380 226.551,89.367 223.163 C 85.188 218.464,85.333 218.830,86.328 215.475 C 86.797 213.894,87.458 211.574,87.796 210.320 C 88.134 209.067,88.588 207.931,88.805 207.797 C 89.022 207.663,89.200 207.229,89.200 206.834 C 89.200 205.731,91.641 201.394,93.181 199.762 C 95.773 197.014,101.392 198.396,106.421 203.019 C 108.762 205.171,109.324 205.434,110.567 204.957 C 111.415 204.632,111.398 201.940,110.519 197.352 C 109.038 189.624,109.854 172.513,111.857 169.300 C 112.412 168.410,113.200 168.082,113.200 168.740 M133.700 195.597 C 131.508 196.515,132.922 198.653,135.274 197.979 C 137.610 197.309,142.181 197.525,144.431 198.412 C 147.831 199.752,149.496 198.477,146.917 196.508 C 145.357 195.317,135.922 194.667,133.700 195.597 M135.375 209.965 C 131.100 211.799,129.703 217.510,130.962 228.000 C 131.823 235.180,137.256 238.828,142.842 235.978 C 146.480 234.123,148.392 224.277,146.271 218.328 C 145.933 217.378,145.553 216.119,145.428 215.531 C 144.688 212.058,138.492 208.627,135.375 209.965 M141.342 214.077 C 141.924 214.780,142.400 215.511,142.400 215.702 C 142.400 215.893,142.882 217.069,143.472 218.315 C 145.669 222.960,143.855 232.777,140.639 233.643 C 137.489 234.492,136.409 233.773,134.421 229.506 L 132.694 225.800 132.933 222.153 C 133.175 218.455,134.299 214.558,135.457 213.400 C 136.650 212.207,140.124 212.607,141.342 214.077 M253.523 219.172 C 257.458 222.990,256.170 237.600,251.735 239.453 C 247.059 241.407,243.289 233.345,245.431 225.973 C 247.670 218.268,250.307 216.051,253.523 219.172 M190.533 300.275 C 188.272 300.455,187.120 301.279,187.956 302.117 C 188.736 302.899,198.784 303.011,199.800 302.249 C 201.964 300.626,197.660 299.709,190.533 300.275 M171.800 316.800 C 172.663 317.240,173.655 317.600,174.005 317.600 C 174.354 317.600,174.833 317.793,175.069 318.029 C 175.304 318.264,177.399 318.593,179.724 318.759 C 182.385 318.949,184.203 319.270,184.633 319.627 C 185.585 320.418,199.824 320.200,201.823 319.365 C 202.709 318.994,204.692 318.800,207.587 318.800 C 211.090 318.800,212.000 318.685,212.000 318.243 C 212.000 317.281,215.199 316.228,215.923 316.952 C 217.335 318.364,215.793 320.082,213.384 319.781 C 212.228 319.636,210.679 319.701,209.942 319.924 C 205.089 321.392,203.155 321.600,194.534 321.583 C 189.730 321.573,184.990 321.393,184.000 321.182 C 183.010 320.971,180.850 320.543,179.200 320.231 C 175.465 319.524,174.800 319.266,174.800 318.528 C 174.800 317.562,173.494 318.108,172.588 319.452 C 171.394 321.224,169.369 319.147,169.905 316.700 C 170.092 315.848,169.914 315.839,171.800 316.800 M214.971 324.229 C 215.431 324.688,215.600 325.662,215.600 327.841 C 215.600 329.681,215.888 331.702,216.351 333.113 C 217.122 335.462,217.730 341.248,217.351 342.626 C 217.234 343.052,215.937 344.336,214.469 345.480 C 213.001 346.624,209.190 349.743,206.000 352.410 C 194.927 361.669,193.289 361.845,185.200 354.637 C 183.550 353.167,181.210 351.309,180.000 350.509 C 178.790 349.709,175.955 347.239,173.700 345.019 L 169.600 340.984 169.600 338.556 C 169.600 337.220,169.868 335.244,170.195 334.164 C 170.522 333.084,170.903 330.760,171.042 329.000 C 171.476 323.483,171.776 323.338,178.119 325.565 C 180.055 326.244,181.917 326.800,182.257 326.800 C 182.597 326.800,184.128 327.180,185.658 327.645 C 192.362 329.681,204.961 328.117,211.929 324.382 C 213.694 323.436,214.156 323.413,214.971 324.229 " stroke="none" fill="#7d7e7e" fill-rule="evenodd"></path><path id="path4" d="M163.418 341.330 C 163.790 342.810,162.590 343.567,161.539 342.517 C 160.899 341.877,160.491 341.772,159.661 342.035 C 159.077 342.220,157.353 342.658,155.829 343.008 C 154.305 343.358,152.296 343.992,151.365 344.416 C 150.433 344.840,147.990 345.639,145.936 346.190 C 142.451 347.126,133.203 350.082,131.400 350.837 C 130.960 351.022,129.430 351.554,128.000 352.020 C 125.371 352.877,121.624 354.412,117.600 356.281 C 116.390 356.843,113.892 357.915,112.048 358.664 C 110.204 359.412,108.245 360.379,107.694 360.812 C 107.143 361.245,106.401 361.600,106.046 361.600 C 104.983 361.601,98.231 366.192,96.846 367.855 C 95.440 369.544,90.800 378.710,90.800 379.799 C 90.800 380.172,90.532 380.954,90.205 381.538 C 89.642 382.545,89.355 383.285,87.578 388.314 C 86.851 390.375,85.049 393.651,82.741 397.112 C 81.204 399.417,81.256 400.000,83.000 400.000 C 83.770 400.000,84.400 399.834,84.400 399.631 C 84.400 399.428,85.532 397.223,86.914 394.731 C 88.297 392.239,89.943 388.850,90.571 387.200 C 94.443 377.030,95.789 374.021,97.831 370.974 C 99.975 367.775,102.284 366.008,107.495 363.580 C 109.423 362.681,111.540 361.668,112.200 361.329 C 112.860 360.989,114.120 360.478,115.000 360.194 C 115.880 359.910,119.013 358.578,121.963 357.235 C 124.913 355.892,128.153 354.543,129.163 354.237 C 130.173 353.931,131.540 353.394,132.200 353.043 C 132.860 352.692,133.670 352.398,134.000 352.389 C 134.330 352.380,135.320 352.025,136.200 351.600 C 137.080 351.175,138.144 350.821,138.565 350.814 C 139.268 350.801,141.784 350.025,153.611 346.172 C 159.169 344.361,160.303 344.378,162.267 346.300 C 164.358 348.347,169.778 354.111,174.592 359.407 C 184.130 369.903,183.564 369.600,193.622 369.600 C 202.513 369.600,201.532 369.966,207.400 364.467 C 209.380 362.612,211.668 360.671,212.483 360.153 C 213.299 359.635,215.260 358.084,216.842 356.705 C 218.423 355.327,220.815 353.353,222.158 352.317 C 223.501 351.281,224.870 350.192,225.200 349.898 C 227.235 348.079,227.762 347.973,230.872 348.751 C 232.482 349.153,235.870 349.795,238.400 350.176 C 240.930 350.558,243.540 351.126,244.200 351.439 C 244.860 351.752,245.940 352.171,246.600 352.371 C 247.260 352.571,249.330 353.400,251.200 354.214 C 258.806 357.521,265.079 360.011,266.400 360.247 C 267.170 360.385,268.610 360.806,269.600 361.184 C 270.590 361.562,272.660 362.289,274.200 362.800 C 279.891 364.690,283.388 367.919,286.979 374.600 C 287.807 376.140,288.625 377.580,288.796 377.800 C 288.967 378.020,289.230 378.773,289.380 379.472 C 289.529 380.172,289.910 380.959,290.226 381.221 C 290.542 381.483,290.800 382.088,290.800 382.564 C 290.800 383.041,291.152 384.122,291.583 384.966 C 292.013 385.810,292.763 387.874,293.250 389.551 C 293.736 391.228,294.441 393.230,294.815 394.000 C 295.190 394.770,295.623 396.435,295.777 397.700 L 296.058 400.000 297.472 400.000 C 298.542 400.000,298.832 399.859,298.663 399.420 C 298.541 399.102,298.157 397.465,297.809 395.782 C 297.462 394.100,296.831 392.045,296.408 391.216 C 295.985 390.386,295.423 388.828,295.159 387.754 C 294.896 386.679,293.987 384.180,293.141 382.200 C 292.294 380.220,291.599 378.420,291.595 378.200 C 291.579 377.247,287.553 369.845,286.290 368.447 C 285.528 367.604,284.836 366.746,284.752 366.542 C 284.429 365.753,281.268 363.592,278.400 362.199 C 273.859 359.993,273.254 359.754,269.836 358.821 C 268.096 358.346,265.358 357.342,263.752 356.590 C 262.146 355.839,260.330 355.099,259.716 354.947 C 259.102 354.794,257.430 354.086,256.000 353.373 C 252.994 351.875,250.354 351.089,249.467 351.430 C 249.127 351.560,248.523 351.477,248.124 351.246 C 247.476 350.869,247.505 350.822,248.400 350.802 C 249.507 350.777,244.306 348.845,243.055 348.817 C 242.645 348.808,240.845 348.448,239.055 348.017 C 232.657 346.479,227.276 345.698,226.715 346.228 C 224.980 347.866,223.494 346.453,224.791 344.400 C 225.255 343.668,224.438 343.268,222.400 343.230 C 219.920 343.184,218.252 343.941,215.800 346.222 C 214.480 347.451,213.130 348.637,212.800 348.858 C 212.302 349.192,212.318 349.224,212.900 349.043 C 214.034 348.690,213.697 349.307,211.976 350.736 C 211.075 351.485,210.110 351.974,209.783 351.849 C 209.394 351.700,209.200 351.887,209.200 352.413 C 209.200 353.202,208.583 353.510,208.333 352.845 C 208.260 352.650,206.400 353.915,204.200 355.656 C 196.114 362.053,191.762 362.330,185.539 356.842 C 183.749 355.263,182.880 354.759,183.400 355.600 C 183.536 355.820,183.457 356.000,183.224 356.000 C 182.991 356.000,182.800 355.820,182.800 355.600 C 182.800 355.380,182.572 355.200,182.293 355.200 C 182.014 355.200,180.889 354.422,179.793 353.471 C 178.697 352.521,177.488 351.628,177.107 351.487 C 176.687 351.331,176.507 350.988,176.650 350.615 C 176.825 350.159,176.617 350.000,175.843 350.000 C 174.846 350.000,174.392 349.413,175.172 349.133 C 175.376 349.060,173.679 347.065,171.401 344.700 L 167.259 340.400 165.222 340.400 C 163.290 340.400,163.197 340.448,163.418 341.330 M182.200 363.600 C 182.903 364.376,182.899 364.400,182.062 364.400 C 181.467 364.400,181.200 364.153,181.200 363.600 C 181.200 363.160,181.262 362.800,181.338 362.800 C 181.414 362.800,181.802 363.160,182.200 363.600 " stroke="none" fill="#1181b1" fill-rule="evenodd"></path></g></svg>